<svg width="293" height="136" viewBox="0 0 293 136" fill="none" xmlns="http://www.w3.org/2000/svg">
<path d="M292.175 102.45C292.162 87.962 282.464 74.9644 268.587 70.8398C265.533 69.9321 262.358 69.4735 259.174 69.4753L186.781 69.3081L111.992 2.90836C108.826 0.0966666 104.018 0.240407 101.024 3.23373L92.9545 11.304C90.609 13.6489 89.9545 17.1977 91.3079 20.2258L113.172 69.1376L60.9388 69.0172L22.2286 34.6485C19.0625 31.8368 14.2533 31.9805 11.26 34.9748L3.19145 43.0444C0.855027 45.3805 0.196187 48.9132 1.53064 51.9346L14.006 80.1586C14.0693 80.3004 14.1576 80.4278 14.2282 80.5658C14.3391 80.7829 14.4462 80.9979 14.577 81.2035C14.6848 81.3745 14.8085 81.5309 14.9297 81.6912C15.0703 81.8821 15.2084 82.0699 15.3665 82.2473C15.506 82.4021 15.6584 82.5423 15.8103 82.6875C15.9753 82.845 16.1387 83.0045 16.3187 83.1495C16.4913 83.2892 16.6763 83.4102 16.8607 83.5343C16.9943 83.625 17.1143 83.7302 17.2546 83.8131L101.822 133.768C102.387 134.101 102.988 134.362 103.612 134.548C104.338 134.763 105.096 134.877 105.861 134.879L259.198 135.473C277.394 135.461 292.186 120.647 292.175 102.45ZM26.5396 68.938L19.9446 54.0165L36.7781 68.9621L26.5396 68.938ZM108.09 118.888L50.711 84.9938L120.332 85.153L125.459 96.621C126.426 98.787 128.282 100.371 130.483 101.025C131.229 101.247 132.014 101.363 132.82 101.356L201.304 100.848C204.615 100.822 207.569 98.761 208.733 95.6603C209.897 92.5597 209.031 89.0639 206.555 86.8649L204.848 85.3481L259.161 85.4751C260.821 85.4731 262.458 85.7086 264.028 86.1753C271.173 88.2989 276.168 94.9958 276.174 102.46C276.182 111.833 268.561 119.467 259.223 119.473L108.09 118.888ZM180.359 85.0038L137.93 85.3193L109.778 22.339L180.359 85.0038Z" fill="black"/>
</svg>
